<svg width="771" height="161" viewBox="0 0 771 161" fill="none" xmlns="http://www.w3.org/2000/svg">
<mask id="path-1-outside-1_21485_6758" maskUnits="userSpaceOnUse" x="0" y="0" width="771" height="161" fill="black">
<rect fill="white" width="771" height="161"/>
<path d="M107.758 103.195L149.383 2H211.819V6.18818H206.843C202.318 6.18818 198.699 6.98053 195.984 8.56525C194.099 9.62173 192.591 11.3951 191.46 13.8854C190.63 15.6965 190.215 20.4129 190.215 28.0346V129.23C190.215 137.078 190.63 141.983 191.46 143.945C192.289 145.907 193.986 147.643 196.549 149.152C199.113 150.586 202.544 151.303 206.843 151.303H211.819V155.491H131.737V151.303H136.714C141.239 151.303 144.858 150.51 147.573 148.926C149.458 147.869 150.966 146.058 152.097 143.492C152.927 141.681 153.341 136.927 153.341 129.23V15.4701L94.5241 155.491H91.8095L32.0873 16.4888V124.589C32.0873 132.135 32.2758 136.776 32.6529 138.512C33.6331 142.285 35.7445 145.379 38.987 147.794C42.3049 150.133 47.4703 151.303 54.4831 151.303V155.491H2V151.303H3.58354C6.97685 151.378 10.1439 150.85 13.0848 149.718C16.0257 148.511 18.2502 146.926 19.7583 144.964C21.2664 143.002 22.4352 140.248 23.2647 136.701C23.4155 135.871 23.4909 132.022 23.4909 125.155V28.0346C23.4909 20.262 23.0762 15.4323 22.2467 13.5458C21.4172 11.5838 19.7206 9.88584 17.1568 8.45205C14.5929 6.9428 11.1619 6.18818 6.86374 6.18818H2V2H64.663L107.758 103.195Z"/>
<path d="M219.172 155.491V151.303H224.261C228.71 151.303 232.104 150.624 234.441 149.265C236.854 147.832 238.626 145.907 239.758 143.492C240.436 141.908 240.776 137.154 240.776 129.23V28.261C240.776 20.4129 240.361 15.5078 239.531 13.5458C238.702 11.5838 237.005 9.88584 234.441 8.45205C231.953 6.9428 228.56 6.18818 224.261 6.18818H219.172V2H287.829C306.153 2 320.895 4.49027 332.055 9.4708C345.704 15.5833 356.035 24.8274 363.048 37.2033C370.136 49.5792 373.68 63.5775 373.68 79.1983C373.68 89.9894 371.946 99.9505 368.477 109.081C365.008 118.137 360.522 125.646 355.017 131.607C349.512 137.493 343.14 142.247 335.901 145.87C328.738 149.416 319.953 152.171 309.547 154.133C304.947 155.038 297.708 155.491 287.829 155.491H219.172ZM277.649 10.7159V130.475C277.649 136.814 277.951 140.7 278.554 142.134C279.158 143.568 280.176 144.662 281.608 145.417C283.644 146.549 286.585 147.115 290.431 147.115C303.024 147.115 312.638 142.813 319.274 134.211C328.323 122.589 332.847 104.554 332.847 80.1038C332.847 60.4081 329.756 44.6741 323.572 32.9019C318.671 23.6955 312.374 17.4321 304.683 14.1118C299.254 11.7724 290.242 10.6405 277.649 10.7159Z"/>
<path d="M529.772 101.611L524.003 155.491H387.819V151.303H392.909C397.358 151.303 400.94 150.51 403.654 148.926C405.615 147.869 407.123 146.058 408.179 143.492C409.008 141.681 409.423 136.927 409.423 129.23V28.261C409.423 20.4129 409.008 15.5078 408.179 13.5458C407.349 11.5838 405.652 9.88584 403.089 8.45205C400.6 6.9428 397.207 6.18818 392.909 6.18818H387.819V2H469.597V6.18818H462.924C458.475 6.18818 454.893 6.98053 452.178 8.56525C450.218 9.62173 448.672 11.4328 447.541 13.9986C446.711 15.8097 446.297 20.5638 446.297 28.261V126.061C446.297 133.909 446.749 138.927 447.654 141.115C448.559 143.228 450.331 144.813 452.97 145.87C454.855 146.549 459.417 146.888 466.657 146.888H479.438C487.582 146.888 494.369 145.454 499.798 142.587C505.227 139.719 509.902 135.192 513.823 129.004C517.82 122.816 521.59 113.685 525.135 101.611H529.772Z"/>
<path d="M681.679 2V6.18818C676.099 7.09373 671.122 10.0745 666.748 15.1305C663.581 18.9036 658.868 27.7705 652.61 41.7311L599.787 159H596.055L543.458 36.9769C537.124 22.2617 532.864 13.6212 530.677 11.0555C528.566 8.48979 524.531 6.86734 518.574 6.18818V2H592.096V6.18818H589.607C582.971 6.18818 578.447 7.01826 576.034 8.67844C574.3 9.81038 573.433 11.4706 573.433 13.659C573.433 15.0173 573.734 16.6398 574.337 18.5263C574.941 20.3374 576.977 25.2802 580.445 33.3547L613.134 109.761L643.448 41.7311C647.067 33.5056 649.292 27.9969 650.121 25.2048C650.951 22.4126 651.365 20.0356 651.365 18.0735C651.365 15.8097 650.762 13.8099 649.556 12.0743C648.349 10.3386 646.577 9.01802 644.24 8.11247C640.997 6.82961 636.699 6.18818 631.345 6.18818V2H681.679Z"/>
<path d="M769 151.303V155.491H688.805V151.303H693.895C698.344 151.303 701.926 150.51 704.64 148.926C706.601 147.869 708.109 146.058 709.165 143.492C709.994 141.681 710.409 136.927 710.409 129.23V28.261C710.409 20.4129 709.994 15.5078 709.165 13.5458C708.335 11.5838 706.639 9.88584 704.075 8.45205C701.586 6.9428 698.193 6.18818 693.895 6.18818H688.805V2H769V6.18818H763.91C759.461 6.18818 755.879 6.98053 753.165 8.56525C751.204 9.62173 749.658 11.4328 748.527 13.9986C747.698 15.8097 747.283 20.5638 747.283 28.261V129.23C747.283 137.078 747.698 141.983 748.527 143.945C749.432 145.907 751.129 147.643 753.617 149.152C756.181 150.586 759.612 151.303 763.91 151.303H769Z"/>
</mask>
<path d="M107.758 103.195L149.383 2H211.819V6.18818H206.843C202.318 6.18818 198.699 6.98053 195.984 8.56525C194.099 9.62173 192.591 11.3951 191.46 13.8854C190.63 15.6965 190.215 20.4129 190.215 28.0346V129.23C190.215 137.078 190.63 141.983 191.46 143.945C192.289 145.907 193.986 147.643 196.549 149.152C199.113 150.586 202.544 151.303 206.843 151.303H211.819V155.491H131.737V151.303H136.714C141.239 151.303 144.858 150.51 147.573 148.926C149.458 147.869 150.966 146.058 152.097 143.492C152.927 141.681 153.341 136.927 153.341 129.23V15.4701L94.5241 155.491H91.8095L32.0873 16.4888V124.589C32.0873 132.135 32.2758 136.776 32.6529 138.512C33.6331 142.285 35.7445 145.379 38.987 147.794C42.3049 150.133 47.4703 151.303 54.4831 151.303V155.491H2V151.303H3.58354C6.97685 151.378 10.1439 150.85 13.0848 149.718C16.0257 148.511 18.2502 146.926 19.7583 144.964C21.2664 143.002 22.4352 140.248 23.2647 136.701C23.4155 135.871 23.4909 132.022 23.4909 125.155V28.0346C23.4909 20.262 23.0762 15.4323 22.2467 13.5458C21.4172 11.5838 19.7206 9.88584 17.1568 8.45205C14.5929 6.9428 11.1619 6.18818 6.86374 6.18818H2V2H64.663L107.758 103.195Z" stroke="white" stroke-width="4" mask="url(#path-1-outside-1_21485_6758)"/>
<path d="M219.172 155.491V151.303H224.261C228.71 151.303 232.104 150.624 234.441 149.265C236.854 147.832 238.626 145.907 239.758 143.492C240.436 141.908 240.776 137.154 240.776 129.23V28.261C240.776 20.4129 240.361 15.5078 239.531 13.5458C238.702 11.5838 237.005 9.88584 234.441 8.45205C231.953 6.9428 228.56 6.18818 224.261 6.18818H219.172V2H287.829C306.153 2 320.895 4.49027 332.055 9.4708C345.704 15.5833 356.035 24.8274 363.048 37.2033C370.136 49.5792 373.68 63.5775 373.68 79.1983C373.68 89.9894 371.946 99.9505 368.477 109.081C365.008 118.137 360.522 125.646 355.017 131.607C349.512 137.493 343.14 142.247 335.901 145.87C328.738 149.416 319.953 152.171 309.547 154.133C304.947 155.038 297.708 155.491 287.829 155.491H219.172ZM277.649 10.7159V130.475C277.649 136.814 277.951 140.7 278.554 142.134C279.158 143.568 280.176 144.662 281.608 145.417C283.644 146.549 286.585 147.115 290.431 147.115C303.024 147.115 312.638 142.813 319.274 134.211C328.323 122.589 332.847 104.554 332.847 80.1038C332.847 60.4081 329.756 44.6741 323.572 32.9019C318.671 23.6955 312.374 17.4321 304.683 14.1118C299.254 11.7724 290.242 10.6405 277.649 10.7159Z" stroke="white" stroke-width="4" mask="url(#path-1-outside-1_21485_6758)"/>
<path d="M529.772 101.611L524.003 155.491H387.819V151.303H392.909C397.358 151.303 400.94 150.51 403.654 148.926C405.615 147.869 407.123 146.058 408.179 143.492C409.008 141.681 409.423 136.927 409.423 129.23V28.261C409.423 20.4129 409.008 15.5078 408.179 13.5458C407.349 11.5838 405.652 9.88584 403.089 8.45205C400.6 6.9428 397.207 6.18818 392.909 6.18818H387.819V2H469.597V6.18818H462.924C458.475 6.18818 454.893 6.98053 452.178 8.56525C450.218 9.62173 448.672 11.4328 447.541 13.9986C446.711 15.8097 446.297 20.5638 446.297 28.261V126.061C446.297 133.909 446.749 138.927 447.654 141.115C448.559 143.228 450.331 144.813 452.97 145.87C454.855 146.549 459.417 146.888 466.657 146.888H479.438C487.582 146.888 494.369 145.454 499.798 142.587C505.227 139.719 509.902 135.192 513.823 129.004C517.82 122.816 521.59 113.685 525.135 101.611H529.772Z" stroke="white" stroke-width="4" mask="url(#path-1-outside-1_21485_6758)"/>
<path d="M681.679 2V6.18818C676.099 7.09373 671.122 10.0745 666.748 15.1305C663.581 18.9036 658.868 27.7705 652.61 41.7311L599.787 159H596.055L543.458 36.9769C537.124 22.2617 532.864 13.6212 530.677 11.0555C528.566 8.48979 524.531 6.86734 518.574 6.18818V2H592.096V6.18818H589.607C582.971 6.18818 578.447 7.01826 576.034 8.67844C574.3 9.81038 573.433 11.4706 573.433 13.659C573.433 15.0173 573.734 16.6398 574.337 18.5263C574.941 20.3374 576.977 25.2802 580.445 33.3547L613.134 109.761L643.448 41.7311C647.067 33.5056 649.292 27.9969 650.121 25.2048C650.951 22.4126 651.365 20.0356 651.365 18.0735C651.365 15.8097 650.762 13.8099 649.556 12.0743C648.349 10.3386 646.577 9.01802 644.24 8.11247C640.997 6.82961 636.699 6.18818 631.345 6.18818V2H681.679Z" stroke="white" stroke-width="4" mask="url(#path-1-outside-1_21485_6758)"/>
<path d="M769 151.303V155.491H688.805V151.303H693.895C698.344 151.303 701.926 150.51 704.64 148.926C706.601 147.869 708.109 146.058 709.165 143.492C709.994 141.681 710.409 136.927 710.409 129.23V28.261C710.409 20.4129 709.994 15.5078 709.165 13.5458C708.335 11.5838 706.639 9.88584 704.075 8.45205C701.586 6.9428 698.193 6.18818 693.895 6.18818H688.805V2H769V6.18818H763.91C759.461 6.18818 755.879 6.98053 753.165 8.56525C751.204 9.62173 749.658 11.4328 748.527 13.9986C747.698 15.8097 747.283 20.5638 747.283 28.261V129.23C747.283 137.078 747.698 141.983 748.527 143.945C749.432 145.907 751.129 147.643 753.617 149.152C756.181 150.586 759.612 151.303 763.91 151.303H769Z" stroke="white" stroke-width="4" mask="url(#path-1-outside-1_21485_6758)"/>
</svg>
